<svg width="22" height="22" viewBox="0 0 22 22" fill="none" xmlns="http://www.w3.org/2000/svg">
<path d="M20.1668 11.0002H17.8935C17.4929 10.9993 17.103 11.1297 16.7835 11.3714C16.464 11.6131 16.2325 11.9528 16.1243 12.3385L13.9702 20.0018C13.9563 20.0494 13.9273 20.0912 13.8877 20.121C13.848 20.1507 13.7997 20.1668 13.7502 20.1668C13.7006 20.1668 13.6523 20.1507 13.6127 20.121C13.573 20.0912 13.544 20.0494 13.5302 20.0018L8.47016 1.9985C8.45628 1.95089 8.42733 1.90908 8.38766 1.87933C8.34799 1.84958 8.29975 1.8335 8.25016 1.8335C8.20058 1.8335 8.15233 1.84958 8.11266 1.87933C8.073 1.90908 8.04405 1.95089 8.03016 1.9985L5.876 9.66183C5.76826 10.0461 5.5381 10.3846 5.22045 10.6262C4.90281 10.8677 4.51504 10.999 4.116 11.0002H1.8335" stroke="#EA580C" stroke-width="1.83333" stroke-linecap="round" stroke-linejoin="round"/>
</svg>
