<svg width="22" height="22" viewBox="0 0 22 22" fill="none" xmlns="http://www.w3.org/2000/svg">
<path d="M18.3337 11.9168C18.3337 16.5001 15.1253 18.7918 11.312 20.1209C11.1123 20.1886 10.8954 20.1853 10.6978 20.1118C6.87533 18.7918 3.66699 16.5001 3.66699 11.9168V5.50009C3.66699 5.25697 3.76357 5.02381 3.93548 4.85191C4.10739 4.68 4.34054 4.58342 4.58366 4.58342C6.41699 4.58342 8.70866 3.48342 10.3037 2.09009C10.4979 1.92417 10.7449 1.83301 11.0003 1.83301C11.2558 1.83301 11.5028 1.92417 11.697 2.09009C13.3012 3.49259 15.5837 4.58342 17.417 4.58342C17.6601 4.58342 17.8933 4.68 18.0652 4.85191C18.2371 5.02381 18.3337 5.25697 18.3337 5.50009V11.9168Z" stroke="#DC2626" stroke-width="1.83333" stroke-linecap="round" stroke-linejoin="round"/>
</svg>
