<svg width="22" height="22" viewBox="0 0 22 22" fill="none" xmlns="http://www.w3.org/2000/svg">
<path d="M11 1.8335C10.2707 1.8335 9.57118 2.12323 9.05546 2.63895C8.53973 3.15468 8.25 3.85415 8.25 4.5835V11.0002C8.25 11.7295 8.53973 12.429 9.05546 12.9447C9.57118 13.4604 10.2707 13.7502 11 13.7502C11.7293 13.7502 12.4288 13.4604 12.9445 12.9447C13.4603 12.429 13.75 11.7295 13.75 11.0002V4.5835C13.75 3.85415 13.4603 3.15468 12.9445 2.63895C12.4288 2.12323 11.7293 1.8335 11 1.8335Z" stroke="#2563EB" stroke-width="1.83333" stroke-linecap="round" stroke-linejoin="round"/>
<path d="M17.4168 9.1665V10.9998C17.4168 12.7016 16.7408 14.3337 15.5374 15.5371C14.3341 16.7405 12.702 17.4165 11.0002 17.4165C9.29836 17.4165 7.66625 16.7405 6.46289 15.5371C5.25954 14.3337 4.5835 12.7016 4.5835 10.9998V9.1665" stroke="#2563EB" stroke-width="1.83333" stroke-linecap="round" stroke-linejoin="round"/>
<path d="M11 17.4165V20.1665" stroke="#2563EB" stroke-width="1.83333" stroke-linecap="round" stroke-linejoin="round"/>
</svg>
