<svg width="22" height="22" viewBox="0 0 22 22" fill="none" xmlns="http://www.w3.org/2000/svg">
<path d="M19.2503 14.6665H15.5837C15.0774 14.6665 14.667 15.0769 14.667 15.5832V19.2498C14.667 19.7561 15.0774 20.1665 15.5837 20.1665H19.2503C19.7566 20.1665 20.167 19.7561 20.167 19.2498V15.5832C20.167 15.0769 19.7566 14.6665 19.2503 14.6665Z" stroke="#0891B2" stroke-width="1.83333" stroke-linecap="round" stroke-linejoin="round"/>
<path d="M6.41634 14.6665H2.74967C2.24341 14.6665 1.83301 15.0769 1.83301 15.5832V19.2498C1.83301 19.7561 2.24341 20.1665 2.74967 20.1665H6.41634C6.9226 20.1665 7.33301 19.7561 7.33301 19.2498V15.5832C7.33301 15.0769 6.9226 14.6665 6.41634 14.6665Z" stroke="#0891B2" stroke-width="1.83333" stroke-linecap="round" stroke-linejoin="round"/>
<path d="M12.8333 1.8335H9.16667C8.66041 1.8335 8.25 2.2439 8.25 2.75016V6.41683C8.25 6.92309 8.66041 7.3335 9.16667 7.3335H12.8333C13.3396 7.3335 13.75 6.92309 13.75 6.41683V2.75016C13.75 2.2439 13.3396 1.8335 12.8333 1.8335Z" stroke="#0891B2" stroke-width="1.83333" stroke-linecap="round" stroke-linejoin="round"/>
<path d="M4.58301 14.6667V11.9167C4.58301 11.6736 4.67959 11.4404 4.85149 11.2685C5.0234 11.0966 5.25656 11 5.49967 11H16.4997C16.7428 11 16.9759 11.0966 17.1479 11.2685C17.3198 11.4404 17.4163 11.6736 17.4163 11.9167V14.6667" stroke="#0891B2" stroke-width="1.83333" stroke-linecap="round" stroke-linejoin="round"/>
<path d="M11 11.0002V7.3335" stroke="#0891B2" stroke-width="1.83333" stroke-linecap="round" stroke-linejoin="round"/>
</svg>
