<svg width="16" height="16" viewBox="0 0 16 16" fill="none" xmlns="http://www.w3.org/2000/svg">
<g clip-path="url(#clip0_78_3946)">
<path d="M8 1.33325C7.46957 1.33325 6.96086 1.54397 6.58579 1.91904C6.21071 2.29411 6 2.80282 6 3.33325V7.99992C6 8.53035 6.21071 9.03906 6.58579 9.41413C6.96086 9.78921 7.46957 9.99992 8 9.99992C8.53043 9.99992 9.03914 9.78921 9.41421 9.41413C9.78929 9.03906 10 8.53035 10 7.99992V3.33325C10 2.80282 9.78929 2.29411 9.41421 1.91904C9.03914 1.54397 8.53043 1.33325 8 1.33325Z" stroke="#2563EB" stroke-width="1.33333" stroke-linecap="round" stroke-linejoin="round"/>
<path d="M12.6663 6.66675V8.00008C12.6663 9.23776 12.1747 10.4247 11.2995 11.2999C10.4243 12.1751 9.23735 12.6667 7.99967 12.6667C6.762 12.6667 5.57501 12.1751 4.69984 11.2999C3.82467 10.4247 3.33301 9.23776 3.33301 8.00008V6.66675" stroke="#2563EB" stroke-width="1.33333" stroke-linecap="round" stroke-linejoin="round"/>
<path d="M8 12.6667V14.6667" stroke="#2563EB" stroke-width="1.33333" stroke-linecap="round" stroke-linejoin="round"/>
</g>
<defs>
<clipPath id="clip0_78_3946">
<rect width="16" height="16" fill="white"/>
</clipPath>
</defs>
</svg>
