<svg width="15" height="15" viewBox="0 0 15 15" fill="none" xmlns="http://www.w3.org/2000/svg">
<path d="M6.875 13.5814C7.06502 13.6911 7.28058 13.7489 7.5 13.7489C7.71942 13.7489 7.93498 13.6911 8.125 13.5814L12.5 11.0814C12.6898 10.9718 12.8475 10.8142 12.9572 10.6245C13.0669 10.4347 13.1248 10.2194 13.125 10.0002V5.00018C13.1248 4.78098 13.0669 4.56569 12.9572 4.37591C12.8475 4.18613 12.6898 4.02853 12.5 3.91893L8.125 1.41893C7.93498 1.30922 7.71942 1.25146 7.5 1.25146C7.28058 1.25146 7.06502 1.30922 6.875 1.41893L2.5 3.91893C2.31016 4.02853 2.15249 4.18613 2.04279 4.37591C1.93309 4.56569 1.87522 4.78098 1.875 5.00018V10.0002C1.87522 10.2194 1.93309 10.4347 2.04279 10.6245C2.15249 10.8142 2.31016 10.9718 2.5 11.0814L6.875 13.5814Z" stroke="#FF6467" stroke-width="1.25" stroke-linecap="round" stroke-linejoin="round"/>
<path d="M7.5 13.75V7.5" stroke="#FF6467" stroke-width="1.25" stroke-linecap="round" stroke-linejoin="round"/>
<path d="M2.05664 4.375L7.50039 7.5L12.9441 4.375" stroke="#FF6467" stroke-width="1.25" stroke-linecap="round" stroke-linejoin="round"/>
<path d="M4.6875 2.66895L10.3125 5.8877" stroke="#FF6467" stroke-width="1.25" stroke-linecap="round" stroke-linejoin="round"/>
</svg>
