<svg width="15" height="15" viewBox="0 0 15 15" fill="none" xmlns="http://www.w3.org/2000/svg">
<path d="M7.5 1.25C7.00272 1.25 6.52581 1.44754 6.17417 1.79917C5.82254 2.15081 5.625 2.62772 5.625 3.125V7.5C5.625 7.99728 5.82254 8.47419 6.17417 8.82583C6.52581 9.17746 7.00272 9.375 7.5 9.375C7.99728 9.375 8.47419 9.17746 8.82583 8.82583C9.17746 8.47419 9.375 7.99728 9.375 7.5V3.125C9.375 2.62772 9.17746 2.15081 8.82583 1.79917C8.47419 1.44754 7.99728 1.25 7.5 1.25Z" stroke="#00C950" stroke-width="1.25" stroke-linecap="round" stroke-linejoin="round"/>
<path d="M11.875 6.25V7.5C11.875 8.66032 11.4141 9.77312 10.5936 10.5936C9.77312 11.4141 8.66032 11.875 7.5 11.875C6.33968 11.875 5.22688 11.4141 4.40641 10.5936C3.58594 9.77312 3.125 8.66032 3.125 7.5V6.25" stroke="#00C950" stroke-width="1.25" stroke-linecap="round" stroke-linejoin="round"/>
<path d="M7.5 11.875V13.75" stroke="#00C950" stroke-width="1.25" stroke-linecap="round" stroke-linejoin="round"/>
</svg>
