<svg width="15" height="15" viewBox="0 0 15 15" fill="none" xmlns="http://www.w3.org/2000/svg">
<g clip-path="url(#clip0_115_6937)">
<path d="M7.49953 3.12491C7.50026 2.87493 7.45101 2.62732 7.35465 2.39666C7.25829 2.16599 7.11678 1.95693 6.93845 1.78175C6.76011 1.60658 6.54854 1.46883 6.31619 1.37662C6.08384 1.2844 5.83539 1.23958 5.58546 1.24479C5.33553 1.25 5.08917 1.30514 4.86086 1.40695C4.63256 1.50877 4.42691 1.65521 4.25603 1.83766C4.08514 2.02012 3.95247 2.2349 3.86581 2.46938C3.77915 2.70386 3.74025 2.9533 3.7514 3.20303C3.38403 3.29749 3.04297 3.47432 2.75405 3.7201C2.46513 3.96589 2.23593 4.27421 2.0838 4.62169C1.93168 4.96917 1.86063 5.34672 1.87602 5.72573C1.89141 6.10474 1.99285 6.47528 2.17265 6.80928C1.85652 7.06612 1.60792 7.3963 1.44849 7.77112C1.28906 8.14593 1.22363 8.55403 1.25788 8.9599C1.29213 9.36577 1.42504 9.75713 1.64503 10.0999C1.86502 10.4427 2.16544 10.7266 2.52015 10.9268C2.47635 11.2657 2.50249 11.61 2.59696 11.9384C2.69142 12.2668 2.85221 12.5723 3.06939 12.8361C3.28657 13.1 3.55553 13.3165 3.85966 13.4723C4.1638 13.6281 4.49664 13.7199 4.83764 13.742C5.17864 13.7641 5.52055 13.7161 5.84227 13.6009C6.16399 13.4857 6.45867 13.3058 6.70813 13.0723C6.95758 12.8387 7.15651 12.5565 7.29263 12.2431C7.42875 11.9296 7.49916 11.5916 7.49953 11.2499V3.12491Z" stroke="#00C950" stroke-width="1.25" stroke-linecap="round" stroke-linejoin="round"/>
<path d="M7.50001 3.12491C7.49927 2.87493 7.54853 2.62732 7.64489 2.39666C7.74124 2.16599 7.88275 1.95693 8.06109 1.78175C8.23943 1.60658 8.451 1.46883 8.68335 1.37662C8.9157 1.2844 9.16415 1.23958 9.41407 1.24479C9.664 1.25 9.91036 1.30514 10.1387 1.40695C10.367 1.50877 10.5726 1.65521 10.7435 1.83766C10.9144 2.02012 11.0471 2.2349 11.1337 2.46938C11.2204 2.70386 11.2593 2.9533 11.2481 3.20303C11.6155 3.29749 11.9566 3.47432 12.2455 3.7201C12.5344 3.96589 12.7636 4.27421 12.9157 4.62169C13.0679 4.96917 13.1389 5.34672 13.1235 5.72573C13.1081 6.10474 13.0067 6.47528 12.8269 6.80928C13.143 7.06612 13.3916 7.3963 13.551 7.77112C13.7105 8.14593 13.7759 8.55403 13.7417 8.9599C13.7074 9.36577 13.5745 9.75713 13.3545 10.0999C13.1345 10.4427 12.8341 10.7266 12.4794 10.9268C12.5232 11.2657 12.497 11.61 12.4026 11.9384C12.3081 12.2668 12.1473 12.5723 11.9301 12.8361C11.713 13.1 11.444 13.3165 11.1399 13.4723C10.8357 13.6281 10.5029 13.7199 10.1619 13.742C9.8209 13.7641 9.47898 13.7161 9.15727 13.6009C8.83555 13.4857 8.54086 13.3058 8.29141 13.0723C8.04195 12.8387 7.84302 12.5565 7.70691 12.2431C7.57079 11.9296 7.50037 11.5916 7.50001 11.2499V3.12491Z" stroke="#00C950" stroke-width="1.25" stroke-linecap="round" stroke-linejoin="round"/>
<path d="M9.375 8.125C8.85028 7.94041 8.39207 7.60437 8.05833 7.15938C7.72458 6.71438 7.53028 6.18042 7.5 5.625C7.46972 6.18042 7.27542 6.71438 6.94167 7.15938C6.60793 7.60437 6.14972 7.94041 5.625 8.125" stroke="#00C950" stroke-width="1.25" stroke-linecap="round" stroke-linejoin="round"/>
<path d="M10.999 4.0625C11.1503 3.80037 11.2358 3.50551 11.2484 3.20312" stroke="#00C950" stroke-width="1.25" stroke-linecap="round" stroke-linejoin="round"/>
<path d="M3.75195 3.20312C3.76431 3.50546 3.84966 3.80031 4.0007 4.0625" stroke="#00C950" stroke-width="1.25" stroke-linecap="round" stroke-linejoin="round"/>
<path d="M2.17285 6.81C2.28719 6.71688 2.40954 6.63406 2.53848 6.5625" stroke="#00C950" stroke-width="1.25" stroke-linecap="round" stroke-linejoin="round"/>
<path d="M12.4609 6.5625C12.5899 6.63406 12.7122 6.71688 12.8266 6.81" stroke="#00C950" stroke-width="1.25" stroke-linecap="round" stroke-linejoin="round"/>
<path d="M3.74988 11.25C3.31915 11.2502 2.89567 11.1391 2.52051 10.9275" stroke="#00C950" stroke-width="1.25" stroke-linecap="round" stroke-linejoin="round"/>
<path d="M12.4794 10.9275C12.1042 11.1391 11.6807 11.2502 11.25 11.25" stroke="#00C950" stroke-width="1.25" stroke-linecap="round" stroke-linejoin="round"/>
</g>
<defs>
<clipPath id="clip0_115_6937">
<rect width="15" height="15" fill="white"/>
</clipPath>
</defs>
</svg>
