<svg width="15" height="15" viewBox="0 0 15 15" fill="none" xmlns="http://www.w3.org/2000/svg">
<path d="M2.50018 8.75016C2.38191 8.75057 2.26595 8.7174 2.16577 8.65452C2.0656 8.59165 1.98532 8.50164 1.93427 8.39495C1.88322 8.28826 1.86349 8.16928 1.87737 8.05182C1.89124 7.93437 1.93817 7.82326 2.01268 7.73141L8.20018 1.35641C8.24659 1.30284 8.30984 1.26664 8.37954 1.25375C8.44924 1.24086 8.52126 1.25205 8.58376 1.28548C8.64626 1.31891 8.69554 1.3726 8.72351 1.43773C8.75148 1.50286 8.75648 1.57557 8.73768 1.64391L7.53768 5.40641C7.50229 5.50112 7.49041 5.60299 7.50305 5.70329C7.51569 5.8036 7.55247 5.89934 7.61023 5.9823C7.668 6.06527 7.74504 6.13298 7.83473 6.17964C7.92441 6.22629 8.02408 6.25049 8.12518 6.25016H12.5002C12.6185 6.24976 12.7344 6.28292 12.8346 6.3458C12.9348 6.40868 13.015 6.49869 13.0661 6.60538C13.1171 6.71206 13.1369 6.83105 13.123 6.9485C13.1091 7.06596 13.0622 7.17706 12.9877 7.26891L6.80018 13.6439C6.75376 13.6975 6.69052 13.7337 6.62081 13.7466C6.55111 13.7595 6.4791 13.7483 6.4166 13.7148C6.35409 13.6814 6.30481 13.6277 6.27684 13.5626C6.24887 13.4975 6.24388 13.4248 6.26268 13.3564L7.46268 9.59391C7.49806 9.49921 7.50995 9.39734 7.49731 9.29703C7.48467 9.19673 7.44789 9.10099 7.39012 9.01802C7.33235 8.93506 7.25532 8.86734 7.16563 8.82069C7.07594 8.77403 6.97627 8.74983 6.87518 8.75016H2.50018Z" stroke="#00C950" stroke-width="1.25" stroke-linecap="round" stroke-linejoin="round"/>
</svg>
