<svg width="20" height="20" viewBox="0 0 20 20" fill="none" xmlns="http://www.w3.org/2000/svg">
<path d="M10 1.6665C9.33696 1.6665 8.70107 1.9299 8.23223 2.39874C7.76339 2.86758 7.5 3.50346 7.5 4.1665V9.99984C7.5 10.6629 7.76339 11.2988 8.23223 11.7676C8.70107 12.2364 9.33696 12.4998 10 12.4998C10.663 12.4998 11.2989 12.2364 11.7678 11.7676C12.2366 11.2988 12.5 10.6629 12.5 9.99984V4.1665C12.5 3.50346 12.2366 2.86758 11.7678 2.39874C11.2989 1.9299 10.663 1.6665 10 1.6665Z" stroke="#155DFC" stroke-width="1.66667" stroke-linecap="round" stroke-linejoin="round"/>
<path d="M15.8337 8.3335V10.0002C15.8337 11.5473 15.2191 13.031 14.1251 14.125C13.0312 15.2189 11.5474 15.8335 10.0003 15.8335C8.45323 15.8335 6.9695 15.2189 5.87554 14.125C4.78157 13.031 4.16699 11.5473 4.16699 10.0002V8.3335" stroke="#155DFC" stroke-width="1.66667" stroke-linecap="round" stroke-linejoin="round"/>
<path d="M10 15.8335V18.3335" stroke="#155DFC" stroke-width="1.66667" stroke-linecap="round" stroke-linejoin="round"/>
</svg>
