<svg width="20" height="20" viewBox="0 0 20 20" fill="none" xmlns="http://www.w3.org/2000/svg">
<g clip-path="url(#clip0_78_4037)">
<path d="M17.4997 13.3335H14.1663C13.7061 13.3335 13.333 13.7066 13.333 14.1668V17.5002C13.333 17.9604 13.7061 18.3335 14.1663 18.3335H17.4997C17.9599 18.3335 18.333 17.9604 18.333 17.5002V14.1668C18.333 13.7066 17.9599 13.3335 17.4997 13.3335Z" stroke="#155DFC" stroke-width="1.66667" stroke-linecap="round" stroke-linejoin="round"/>
<path d="M5.83366 13.3335H2.50033C2.04009 13.3335 1.66699 13.7066 1.66699 14.1668V17.5002C1.66699 17.9604 2.04009 18.3335 2.50033 18.3335H5.83366C6.2939 18.3335 6.66699 17.9604 6.66699 17.5002V14.1668C6.66699 13.7066 6.2939 13.3335 5.83366 13.3335Z" stroke="#155DFC" stroke-width="1.66667" stroke-linecap="round" stroke-linejoin="round"/>
<path d="M11.6667 1.6665H8.33333C7.8731 1.6665 7.5 2.0396 7.5 2.49984V5.83317C7.5 6.29341 7.8731 6.6665 8.33333 6.6665H11.6667C12.1269 6.6665 12.5 6.29341 12.5 5.83317V2.49984C12.5 2.0396 12.1269 1.6665 11.6667 1.6665Z" stroke="#155DFC" stroke-width="1.66667" stroke-linecap="round" stroke-linejoin="round"/>
<path d="M4.16699 13.3333V10.8333C4.16699 10.6123 4.25479 10.4004 4.41107 10.2441C4.56735 10.0878 4.77931 10 5.00033 10H15.0003C15.2213 10 15.4333 10.0878 15.5896 10.2441C15.7459 10.4004 15.8337 10.6123 15.8337 10.8333V13.3333" stroke="#155DFC" stroke-width="1.66667" stroke-linecap="round" stroke-linejoin="round"/>
<path d="M10 9.99984V6.6665" stroke="#155DFC" stroke-width="1.66667" stroke-linecap="round" stroke-linejoin="round"/>
</g>
<defs>
<clipPath id="clip0_78_4037">
<rect width="20" height="20" fill="white"/>
</clipPath>
</defs>
</svg>
