<svg width="24" height="24" viewBox="0 0 24 24" fill="none" xmlns="http://www.w3.org/2000/svg">
<path d="M15 5C15 3.34315 13.6569 2 12 2C10.3431 2 9 3.34315 9 5V10C9 11.6569 10.3431 13 12 13C13.6569 13 15 11.6569 15 10V5Z" fill="white"/>
<path d="M5 11C5 12.8565 5.7375 14.637 7.05025 15.9497C8.36301 17.2625 10.1435 18 12 18C13.8565 18 15.637 17.2625 16.9497 15.9497C18.2625 14.637 19 12.8565 19 11" stroke="white" stroke-width="1.8" stroke-linecap="round"/>
<path d="M12 18V22" stroke="white" stroke-width="1.8" stroke-linecap="round"/>
<path d="M9 22H15" stroke="white" stroke-width="1.8" stroke-linecap="round"/>
</svg>
